<svg xmlns="http://www.w3.org/2000/svg" xmlns:xlink="http://www.w3.org/1999/xlink" viewBox="0 0 1125 2436"><defs><style>.cls-1{fill:url(#radial-gradient);}</style><radialGradient id="radial-gradient" cx="562.5" cy="1218" r="948.66" gradientUnits="userSpaceOnUse"><stop offset="0" stop-color="#f2f2f2"/><stop offset="0.48" stop-color="blue"/><stop offset="1" stop-color="blue"/></radialGradient></defs><title>Notepad_Launch_Screen</title><g id="BG_Gradient" data-name="BG Gradient"><rect class="cls-1" width="1125" height="2436"/></g><g id="Text"><path d="M293.52,1241l13.9-78.92h13.83l17.67,52.45h.93l9.46-52.45h13.45L348.87,1241H335.09l-17.72-52.78h-.88L307,1241Z"/><path d="M378.61,1218.25a33.7,33.7,0,0,1,.49-6.13l1.53-8.75c2.63-14.93,13.51-23.95,28.27-23.95,15.86,0,26.47,10.39,26.47,24.11a35.29,35.29,0,0,1-.54,6l-1.53,8.75c-2.68,15.14-13.4,24-28.61,24C389.11,1242.25,378.61,1231.86,378.61,1218.25Zm16.4-13-1.42,8.2a22.46,22.46,0,0,0-.44,4.49c0,7.22,5,12.14,12.09,12.14,7.38,0,12.14-4.71,13.73-13.78l1.47-8.26a29.54,29.54,0,0,0,.33-4.27c0-7.16-4.92-12.08-12-12.08C401.41,1191.67,396.6,1196.43,395,1205.23Z"/><path d="M497.82,1163.45l-3.07,17.83h22.48l-2,12H493.06l-5.2,28.5a9.06,9.06,0,0,0-.22,1.8c0,3.72,2.57,5.63,7.71,5.63,1.59,0,12,0,12.69-.11l-2,11.82c-.6.11-14.93.21-16.24.21-11.49,0-17.45-4.64-17.45-13.67a34.61,34.61,0,0,1,.55-5.85l5.19-28.33H462.38l2-12h15.75l3.06-17.83Z"/><path d="M565.73,1242.31c-15.32,0-24.89-9-24.89-23.41a45,45,0,0,1,.88-8.91l1.26-7c2.62-14.39,13.89-23.57,28.93-23.57,14.6,0,24.88,9.46,24.28,22.31a49.18,49.18,0,0,1-.6,6.67l-.93,6h-39a38.72,38.72,0,0,0-.6,4.48c-.39,7.17,4.1,11.81,11.43,11.81,5.63,0,9.84-2.4,11.32-6.67h14.76C590.61,1235,579.84,1242.31,565.73,1242.31Zm-8-40c-.11.43-.49,2.07-.55,2.57H581.8a28.44,28.44,0,0,0,.33-3.39c.49-6.29-3.88-10.56-10.83-10.56S559.38,1195,557.69,1202.28Z"/><path d="M634.62,1229.73h-.87l-5.64,31.34H612.64l14.16-80.39h15.37l-1.92,10.93h1a18.16,18.16,0,0,1,17.28-11.92c11.16,0,19.63,7.22,19.63,20.07a50.3,50.3,0,0,1-.65,7.33l-1.75,9.84c-2.79,16-11.65,25-24,25C642.22,1241.92,635.55,1236.78,634.62,1229.73Zm26-13.18,1.58-9a30.12,30.12,0,0,0,.33-4.59c0-6.07-4.15-10.61-10.93-10.61s-12.31,4.37-13.79,12.36l-1.64,9.24a23.37,23.37,0,0,0-.27,4.1c0,6,4.59,10.77,11.54,10.77C654.15,1228.85,659.12,1224.7,660.6,1216.55Z"/><path d="M699.42,1225.19c-.06-12.74,9.24-19.91,26.57-20.29l13.51-.33.6-3.61a13.75,13.75,0,0,0,.28-2.24c0-4.37-3.72-7.27-9.41-7.27-4.81,0-8.91,2.35-10.39,6.07H705.92c1.92-10.45,13-18,26.42-18,13.78,0,22.75,7.11,22.75,18a35.09,35.09,0,0,1-.71,6.62L747.92,1241H733.71l1.42-7.93h-1.21c-2.84,5.68-8.8,8.85-16.35,8.85C707,1241.92,699.47,1235,699.42,1225.19Zm37.57-6.62.87-4.37-10.94.22c-7.93.16-12.46,3.28-12.52,8.58,0,4.16,3.61,7,9,7A13.66,13.66,0,0,0,737,1218.57Z"/><path d="M822.78,1192h.88l6.07-34.29H845.2L830.55,1241H815.18l1.91-10.89h-1a17.93,17.93,0,0,1-17.23,11.81c-11.92,0-19.63-7.87-19.63-20.07a49.84,49.84,0,0,1,.6-7.32l1.53-9.85c2.41-15.53,11.6-25,24.23-25C814.52,1179.69,821.58,1184.56,822.78,1192Zm-25.92,12.68-1.59,8.92a29.93,29.93,0,0,0-.33,4.59c0,6.29,4.43,10.66,10.94,10.66,7.17,0,12.36-4.75,13.78-12.41l1.64-9.24a20.09,20.09,0,0,0,.33-3.88c0-6.35-4.92-11-11.59-11C803,1192.32,798.28,1196.81,796.86,1204.68Z"/></g></svg>